HIERARCHY
ROOT Hips
{
  OFFSET 57.8838 95.319 338.509
  CHANNELS 6 Xposition Yposition Zposition Zrotation Xrotation Yrotation
  JOINT LeftUpLeg
  {
    OFFSET 8.64259 1.95398 -2.38835
    CHANNELS 3 Zrotation Xrotation Yrotation
    JOINT LeftLeg
    {
      OFFSET 43.7702 0 0
      CHANNELS 3 Zrotation Xrotation Yrotation
      JOINT LeftFoot
      {
        OFFSET 40.6238 0 0
        CHANNELS 3 Zrotation Xrotation Yrotation
        JOINT LeftToeBase
        {
          OFFSET 12.7242 0 0
          CHANNELS 3 Zrotation Xrotation Yrotation
          End Site
          {
            OFFSET 0 0 0
          }
        }
      }
    }
  }
  JOINT RightUpLeg
  {
    OFFSET -8.2249 1.95398 -2.59336
    CHANNELS 3 Zrotation Xrotation Yrotation
    JOINT RightLeg
    {
      OFFSET 43.5653 0 0
      CHANNELS 3 Zrotation Xrotation Yrotation
      JOINT RightFoot
      {
        OFFSET 40.6238 0 0
        CHANNELS 3 Zrotation Xrotation Yrotation
        JOINT RightToeBase
        {
          OFFSET 12.7242 0 0
          CHANNELS 3 Zrotation Xrotation Yrotation
          End Site
          {
            OFFSET 0 0 0
          }
        }
      }
    }
  }
  JOINT Spine
  {
    OFFSET 0.165834 0.87714 6.61349
    CHANNELS 3 Zrotation Xrotation Yrotation
    JOINT Spine1
    {
      OFFSET 7.38963 1.71661e-005 0
      CHANNELS 3 Zrotation Xrotation Yrotation
      JOINT Spine2
      {
        OFFSET 11.9445 1.14441e-005 0
        CHANNELS 3 Zrotation Xrotation Yrotation
        JOINT Spine3
        {
          OFFSET 14.7254 4.19617e-005 0
          CHANNELS 3 Zrotation Xrotation Yrotation
          JOINT Spine4
          {
            OFFSET 10.9679 0 0
            CHANNELS 3 Zrotation Xrotation Yrotation
            JOINT RightShoulder
            {
              OFFSET 2.46616 -1.6653 3.69651
              CHANNELS 3 Zrotation Xrotation Yrotation
              JOINT RightArm
              {
                OFFSET 13.0012 0 0
                CHANNELS 3 Zrotation Xrotation Yrotation
                JOINT RightForeArm
                {
                  OFFSET 28.7848 1.62311e-005 0
                  CHANNELS 3 Zrotation Xrotation Yrotation
                  JOINT RightHand
                  {
                    OFFSET 26.5688 1.62095e-005 0
                    CHANNELS 3 Zrotation Xrotation Yrotation
                    End Site
                    {
                      OFFSET 0 0 0
                    }
                  }
                }
              }
            }
            JOINT LeftShoulder
            {
              OFFSET 2.38034 -1.29275 -3.7523
              CHANNELS 3 Zrotation Xrotation Yrotation
              JOINT LeftArm
              {
                OFFSET 16.3182 6.07031e-005 0
                CHANNELS 3 Zrotation Xrotation Yrotation
                JOINT LeftForeArm
                {
                  OFFSET 27.0901 0 0
                  CHANNELS 3 Zrotation Xrotation Yrotation
                  JOINT LeftHand
                  {
                    OFFSET 24.5451 1.51738e-005 0
                    CHANNELS 3 Zrotation Xrotation Yrotation
                    End Site
                    {
                      OFFSET 0 0 0
                    }
                  }
                }
              }
            }
            JOINT Neck
            {
              OFFSET 5.0226 -0.0266342 0
              CHANNELS 3 Zrotation Xrotation Yrotation
              JOINT Head
              {
                OFFSET 6.69364 2.86102e-005 0
                CHANNELS 3 Zrotation Xrotation Yrotation
                End Site
                {
                  OFFSET 0 0 0
                }
              }
            }
          }
        }
      }
    }
  }
}
MOTION
Frames:	10
Frame Time:	0.0416667
170.742 95.6877 -182.951 -99.3224 -44.6719 -94.4187 177.141 19.0823 88.1354 -10.5568 7.17606 0.958274 55.6243 -2.06183 3.06104 39.031 4.71682 12.4501 172.256 -12.0916 92.2972 -30.6814 -11.0777 -1.72428 69.0581 -3.52217 13.6277 39.3583 -14.0133 -0.11496 0.905344 7.66321 -90.4315 11.5574 1.59919 -1.02527 -0.112977 1.55252 -1.09467 -22.6553 1.83337 -0.497141 -2.64264 1.83337 -0.497148 98.1246 -45.3738 -88.6694 30.7523 -11.7948 -12.9948 -7.35612 -11.6645 -33.4449 -14.9584 -0.66426 -0.00389909 -79.9041 -54.8483 94.1423 -30.0854 -32.9359 -3.98231 5.44596 68.4572 0.0184965 -7.15939 0.248491 -10.3206 15.1572 0.0323298 -4.56258 -23.1093 -0.304214 8.50934 
163.399 94.8531 -174.289 -100.268 -45.7475 -97.5433 177.508 20.3204 84.3866 -26.0754 12.7691 0.628121 56.3199 -3.7382 8.96749 35.2973 2.70737 6.06885 170.993 -7.47151 85.7256 -45.1918 -13.7753 -1.93956 55.9776 11.1673 15.9521 29.7946 -1.49316 -7.91664 0.751919 7.62378 -89.9199 11.6266 1.53338 0.00049703 -0.0434378 1.53193 -0.0670111 -22.5854 1.46231 0.461415 -2.5727 1.46232 0.461417 98.4633 -45.9084 -88.0669 33.3521 -11.2314 -9.32288 -5.2137 -13.1461 -27.8108 -14.5972 -0.869169 1.76535 -80.4478 -53.6708 93.3056 -30.8189 -32.7908 -5.29499 5.69691 68.5115 0.0210956 -7.33643 0.247605 -10.0898 16.4045 -0.334485 -5.12748 -24.9203 -0.441772 7.7484 
157.059 94.9098 -166.932 -103.679 -47.4296 -101.799 178.454 14.6681 81.1461 -31.9573 14.192 0.682185 61.0796 2.23464 14.1588 35.1406 2.56716 0.593298 170.903 4.19235 89.2864 -64.755 -14.88 -1.68791 53.2616 12.8997 9.11353 24.0535 8.06046 -10.003 0.26169 7.93527 -89.6007 10.9988 0.705876 0.72807 -0.672153 0.737234 0.696295 -23.2062 0.454438 0.906539 -3.19358 0.454424 0.906539 98.2194 -46.6115 -88.405 34.69 -10.8833 -8.37602 -2.8955 -15.2676 -20.4752 -9.42857 -0.528063 1.27033 -80.9643 -53.3683 92.5394 -33.1888 -30.2489 -11.6224 5.00655 68.9481 0.0210542 -6.26091 0.169837 -9.6629 17.1278 0.424846 -6.42206 -23.753 0.362059 10.0227 
150.299 96.2969 -159.814 -105.138 -50.0293 -100.097 179.423 6.78027 83.7216 -31.8087 16.7575 2.61505 63.8182 5.71968 13.8307 39.2937 4.34555 1.93574 170.475 14.6808 92.5616 -67.4412 -14.0033 -0.118121 58.7695 5.47813 8.01873 25.3209 5.83631 -8.88239 -0.145346 7.98202 -89.953 10.91 -0.267611 0.118724 -0.760963 -0.262133 0.130373 -23.2963 -0.290946 0.0327894 -3.28369 -0.290935 0.0328024 98.2653 -46.5288 -88.3383 36.1459 -8.86657 -5.74076 -1.10554 -15.1138 -16.4061 -7.51225 -0.326394 -0.130209 -80.9258 -52.3794 92.5403 -36.2274 -25.0273 -18.4899 2.87995 65.5536 0.0113022 -4.14798 0.0131335 -9.27577 15.4776 1.38786 -5.49499 -24.155 0.907891 10.073 
143.755 96.9567 -152.993 -104.881 -52.8242 -99.7697 -179.339 -0.704586 84.9155 -28.0077 18.8105 3.11764 65.1969 8.26555 13.6497 42 5.3563 -0.0534708 169.921 20.7207 94.0232 -51.6499 -9.02324 1.91833 61.3101 1.58421 7.5708 31.3244 -3.54178 -6.66286 -0.487852 7.83254 -90.0452 11.2093 -0.991842 0.00773669 -0.461253 -0.990566 0.0513833 -22.9993 -0.948331 -0.290746 -2.98668 -0.948347 -0.290746 98.2757 -47.5998 -88.2327 36.1452 -7.70469 -0.937798 -1.21069 -15.7334 -16.4924 -7.28901 -0.33142 0.116904 -80.5942 -51.3929 92.9783 -36.1987 -18.0194 -22.6098 6.53155 59.318 -9.4322 -1.67969 -0.122752 -9.25474 14.319 1.20084 -6.58516 -24.3696 0.827911 10.6534 
137.4 97.1917 -146.401 -104.138 -56.3741 -100.294 -178.384 -7.99845 86.0421 -22.5693 20.392 3.42518 64.2768 9.24773 11.0738 46.1333 7.55987 4.42951 173.339 21.3134 91.7313 -24.7077 0.446806 1.36917 63.0468 3.38237 13.3999 27.8923 1.67408 -7.17019 -0.794127 7.72417 -90.0105 11.4277 -1.58497 0.138586 -0.242258 -1.57733 0.208212 -22.7849 -1.55332 -0.344292 -2.77224 -1.55332 -0.344281 98.7324 -48.0548 -87.4681 36.5882 -5.04103 1.1807 -0.699954 -16.2214 -15.0899 -7.15816 -0.378771 1.07852 -80.9889 -50.7831 92.3538 -34.7394 -12.161 -26.6138 11.2289 54.1685 -19.7284 -0.935087 -0.164528 -10.3789 15.1827 0.763968 -7.83974 -24.3732 0.7369 10.9306 
130.485 96.7237 -139.529 -105.149 -59.4588 -102.522 -177.463 -13.5439 87.842 -23.0739 25.3797 4.23308 61.2931 7.91388 9.76763 53.0216 10.8129 5.15444 175.416 21.0614 89.596 -15.4109 5.25773 -0.358029 66.2018 4.7937 16.683 26.7883 3.22868 -6.09052 -1.02866 7.68197 -89.9969 11.5122 -2.04497 0.214 -0.157237 -2.03356 0.303823 -22.7049 -2.01473 -0.410756 -2.69225 -2.01471 -0.41075 99.0988 -48.1171 -86.8804 36.6578 -3.33124 1.03867 0.59111 -16.9515 -11.6542 -5.91154 -0.323303 1.28528 -81.3571 -50.9205 91.8105 -34.4043 -9.76828 -28.8195 13.2144 52.1086 -23.9561 -0.0822995 -0.21196 -10.4302 16.2848 0.567901 -7.09172 -24.237 0.619567 9.91537 
122.301 95.5873 -131.644 -103.551 -58.9332 -99.0409 -177.741 -13.731 90.9579 -33.3025 22.9336 6.57846 57.8662 1.49435 2.32538 62.2844 14.4141 2.56197 173.892 21.7252 91.9053 -23.4005 -3.18909 2.27699 59.8755 9.48484 7.74041 26.3767 3.61381 -3.99114 -0.894499 7.48344 -90.4754 11.9013 -2.00247 -0.732879 0.231789 -2.03277 -0.644025 -22.3111 -1.68964 -1.30094 -2.29849 -1.68962 -1.30094 98.8341 -47.8867 -87.3179 35.2099 -3.30629 0.219095 1.92489 -17.6754 -8.66379 -5.2845 -0.291342 1.37987 -80.9219 -52.0404 92.5269 -34.635 -10.7832 -24.7418 13.9187 51.729 -24.934 0.328391 -0.231224 -10.3336 17.442 1.36451 -5.18261 -26.6206 0.747995 9.68824 
114.606 94.7288 -124.237 -104.054 -57.4341 -97.0006 -177.554 -4.49204 91.1728 -53.1966 16.3006 6.44853 48.4103 -8.78216 -0.0501688 44.7098 8.03709 14.1677 172.061 20.3551 95.4481 -35.1961 -3.9511 4.0666 66.4225 3.21676 5.80991 22.4535 8.1141 1.6715 -0.534933 7.42395 -91.0232 12.013 -1.54661 -1.8776 0.341768 -1.62773 -1.80774 -22.186 -0.91095 -2.25545 -2.17335 -0.910959 -2.25547 99.107 -47.3755 -86.9155 33.3927 -4.04196 -0.703549 0.869722 -16.5063 -11.2555 -6.17046 -0.441904 3.13804 -81.433 -53.0117 91.8335 -35.1036 -13.7439 -18.924 12.8087 57.1081 -21.254 -1.34818 -0.162272 -12.0717 17.6567 1.64472 -4.28919 -27.5223 0.617756 10.0016 
107.648 94.8207 -117.387 -105.623 -56.7514 -97.4298 -179.656 8.862 92.8885 -66.4994 10.5923 5.93263 52.5494 -2.59667 6.44738 46.9776 8.80397 11.9816 172.05 13.9055 97.4171 -38.0674 -2.79712 3.56926 71.2632 -1.32599 5.60785 26.1385 3.27478 2.48775 -0.233977 7.64192 -91.3584 11.5692 -1.10117 -2.59007 -0.103757 -1.21402 -2.53915 -22.6185 -0.272194 -2.80111 -2.60583 -0.272193 -2.80111 99.3038 -46.9488 -86.6259 30.5654 -5.55983 -4.82395 -0.0865923 -14.5253 -15.82 -11.2275 -0.804816 3.37669 -81.7029 -53.611 91.4789 -36.673 -17.7076 -16.5951 5.24764 65.2548 -8.9522 -2.19086 -0.104239 -10.2197 17.7801 0.912724 -3.97209 -26.2688 -0.0624195 9.91841 
